<?xml version="1.0" standalone="no"?><!DOCTYPE svg PUBLIC "-//W3C//DTD SVG 1.1//EN" "http://www.w3.org/Graphics/SVG/1.1/DTD/svg11.dtd"><svg t="1487605187787" class="icon" style="" viewBox="0 0 1449 1024" version="1.1" xmlns="http://www.w3.org/2000/svg" p-id="2043" xmlns:xlink="http://www.w3.org/1999/xlink" width="22.640625" height="16"><defs><style type="text/css"></style></defs><path d="M750.374842 35.855826c-249.936299 0-448.60379 198.667491-448.60379 448.600349 0 249.939739 198.667491 448.610671 448.60379 448.610671s448.60895-198.672652 448.60895-448.610671C1198.983793 234.523317 1000.311141 35.855826 750.374842 35.855826zM750.374842 881.798038c-217.892434 0-397.333262-179.442548-397.333262-397.340142 0-217.887273 179.439108-397.329821 397.333262-397.329821 217.894154 0 397.336702 179.442548 397.336702 397.329821C1147.713264 702.35549 968.270716 881.798038 750.374842 881.798038zM1038.766187 484.456175c0-12.813762-12.818922-25.627523-25.634404-25.627523L776.009246 458.828652 776.009246 215.296654c0-12.815482-12.815482-25.634404-25.634404-25.634404-12.815482 0-25.629243 12.820642-25.629243 25.634404L724.745599 458.828652 481.21188 458.828652c-12.813762 0-25.632684 12.815482-25.632684 25.627523 0 12.822363 12.820642 25.637844 25.632684 25.637844l243.533719 0 0 237.120817c0 12.815482 12.815482 25.634404 25.629243 25.634404 12.820642 0 25.634404-12.820642 25.634404-25.634404L776.009246 510.09402l243.530278 0C1032.355006 510.09402 1045.175648 497.278538 1038.766187 484.456175z" p-id="2044" fill="#09bb07"></path></svg>